<svg width="136" height="116" viewBox="0 0 136 116" fill="none" xmlns="http://www.w3.org/2000/svg">
<path d="M121.113 79.1629C123.377 79.1629 125.213 77.3273 125.213 75.0629C125.213 72.7985 123.377 70.9629 121.113 70.9629C118.849 70.9629 117.013 72.7985 117.013 75.0629C117.013 77.3273 118.849 79.1629 121.113 79.1629Z" fill="#EAEEF9"/>
<path d="M113.239 90.6022C114.786 90.6022 116.039 89.3486 116.039 87.8022C116.039 86.2558 114.786 85.0022 113.239 85.0022C111.693 85.0022 110.439 86.2558 110.439 87.8022C110.439 89.3486 111.693 90.6022 113.239 90.6022Z" fill="#EAEEF9"/>
<path d="M22.5129 22.163C24.0593 22.163 25.3129 20.9094 25.3129 19.363C25.3129 17.8166 24.0593 16.563 22.5129 16.563C20.9665 16.563 19.7129 17.8166 19.7129 19.363C19.7129 20.9094 20.9665 22.163 22.5129 22.163Z" fill="#EAEEF9"/>
<path d="M5.41289 76.1629C8.28477 76.1629 10.6129 73.8348 10.6129 70.9629C10.6129 68.0911 8.28477 65.7629 5.41289 65.7629C2.54101 65.7629 0.212891 68.0911 0.212891 70.9629C0.212891 73.8348 2.54101 76.1629 5.41289 76.1629Z" fill="#EAEEF9"/>
<path d="M68.5628 102.263C96.5628 102.263 119.263 79.563 119.263 51.463C119.263 23.363 96.5628 0.662964 68.5628 0.662964C40.5628 0.662964 17.8628 23.363 17.8628 51.463C17.8628 79.563 40.5628 102.263 68.5628 102.263Z" fill="#EAEEF9"/>
<path d="M98.0068 8.29846C99.5148 8.29846 100.791 9.45279 100.791 11.0689V92.7953C100.791 94.296 99.6308 95.5657 98.0068 95.5657H37.5685C36.0605 95.5657 34.7844 94.4114 34.7844 92.7953V11.0689C34.7844 9.56822 35.9445 8.29846 37.5685 8.29846H98.0068Z" fill="#CED7E2"/>
<path d="M100.791 16.8406V92.68C100.791 94.1806 99.6308 95.4503 98.0067 95.4503H42.7887L37.9165 90.6022L92.7865 15.4554L97.5427 13.7239L100.791 16.8406Z" fill="#BCC4CF"/>
<path d="M97.7747 14.6473C97.7747 14.1856 97.4267 13.7239 96.8467 13.7239H38.8445C38.3805 13.7239 37.9165 14.0702 37.9165 14.6473V89.6787C37.9165 90.1404 38.2645 90.6022 38.8445 90.6022H96.7307C97.1947 90.6022 97.6587 90.2559 97.6587 89.6787L97.7747 14.6473Z" fill="#D9DFEE"/>
<path d="M97.7747 14.6473C97.7747 14.1856 97.4267 13.7239 96.8467 13.7239H38.8446C38.3805 13.7239 37.9165 14.0702 37.9165 14.6473C38.6125 44.5445 38.8446 78.3663 35.5964 87.1392L91.1625 86.3312C94.5266 71.094 97.0787 43.7364 97.7747 14.6473Z" fill="#EFF3FB"/>
<g filter="url(#filter0_d_30_719)">
<path d="M97.6582 13.8392C97.6582 13.8392 97.5422 18.3411 96.1501 47.0839C96.1501 47.3148 96.1501 47.4302 96.1501 47.6611C94.4101 75.8267 69.3531 81.7138 66.337 82.0601C64.945 82.1755 62.2769 82.4064 57.5207 82.4064C51.6045 82.6372 42.5562 82.7527 28.4036 82.8681C27.9396 82.8681 27.5916 82.4064 27.8236 81.9446C37.568 62.4365 37.684 13.9547 37.684 13.9547L97.6582 13.8392Z" fill="white"/>
</g>
<path d="M96.0347 47.5457C94.4106 75.7113 69.2377 81.5984 66.2216 81.9447C64.8295 82.0601 62.1614 82.2909 57.4053 82.2909C69.9337 76.5193 76.662 66.1303 76.546 58.05C82.5782 58.5118 93.0186 58.05 96.0347 47.5457Z" fill="#EAEEF9"/>
<path d="M81.8821 8.52932C81.8821 8.41388 81.8821 8.41388 81.8821 8.52932L81.3021 7.95215C81.3021 7.95215 80.9541 8.06759 80.8381 8.29845H71.7897C71.7897 8.06759 71.7897 7.95215 71.7897 7.72129C71.7897 5.87436 70.1657 4.2583 68.3096 4.2583C66.4535 4.2583 64.8295 5.87436 64.8295 7.72129C64.8295 7.95215 64.8295 8.06759 64.9455 8.18302H55.5491C55.0851 8.18302 54.6211 8.52932 54.6211 9.22191V12.2232C54.6211 14.5318 56.2452 15.917 58.4492 15.917H77.7059C80.026 15.917 81.9981 14.5318 81.9981 12.2232V9.10648C82.1141 8.87562 81.9981 8.64475 81.8821 8.52932Z" fill="#1C3754"/>
<path d="M81.534 8.52929V11.5305C81.534 11.7614 81.534 11.8768 81.534 12.1077C81.186 14.0701 79.562 15.6861 77.4739 15.6861H58.1012C56.0131 15.6861 54.389 14.0701 54.041 12.1077C54.041 11.8768 54.041 11.7614 54.041 11.5305V8.52929C54.041 8.06756 54.389 7.49039 54.969 7.49039H64.4814C64.4814 7.25953 64.4814 7.14409 64.4814 7.02866C64.4814 5.18173 66.1055 3.56567 67.9615 3.56567C69.8176 3.56567 71.4417 5.18173 71.4417 7.02866C71.4417 7.25953 71.4417 7.37496 71.4417 7.49039H80.954C81.186 7.60582 81.534 7.95212 81.534 8.52929Z" fill="url(#paint0_linear_30_719)"/>
<path d="M67.7295 8.64484C68.6576 8.64484 69.3536 7.95224 69.3536 7.02878C69.3536 6.10532 68.6576 5.41272 67.7295 5.41272C66.8015 5.41272 66.1055 6.10532 66.1055 7.02878C66.1055 7.95224 66.9175 8.64484 67.7295 8.64484Z" fill="#EAEEF9"/>
<path d="M81.418 12.1078C81.07 14.0701 79.446 15.6862 77.3579 15.6862H58.1012C56.0131 15.6862 54.389 14.0701 54.041 12.1078H81.418Z" fill="#9AA1B2"/>
<path d="M52.1851 47.1993C54.0411 47.1993 55.4332 45.6987 55.4332 43.9672C55.4332 42.1203 53.9251 40.7351 52.1851 40.7351C50.329 40.7351 48.9369 42.2357 48.9369 43.9672C48.8209 45.6987 50.329 47.1993 52.1851 47.1993Z" fill="#989FB0"/>
<path d="M77.9378 47.0839C79.7939 47.0839 81.1859 45.5832 81.1859 43.8518C81.1859 42.0048 79.6779 40.6196 77.9378 40.6196C76.1978 40.6196 74.6897 42.1203 74.6897 43.8518C74.6897 45.5832 76.0817 47.0839 77.9378 47.0839Z" fill="#989FB0"/>
<path d="M68.1937 50.6624H61.9294V52.163H68.1937V50.6624Z" fill="#989FB0"/>
<path d="M130.72 14.1855C133.272 26.1906 132.924 38.8882 129.444 50.6623C128.632 53.0864 127.82 55.7414 126.08 57.5883C123.644 60.4741 119.235 61.7439 115.639 60.8204C111.927 59.897 108.911 56.6648 108.215 52.7401C107.635 50.316 108.447 47.4302 110.535 45.9296C112.739 44.5444 115.871 44.8907 117.727 46.6222C119.815 48.3537 120.627 51.0086 120.511 53.5482C120.395 56.0877 119.467 58.6272 118.191 60.8204C114.363 67.9773 107.403 73.6335 99.3987 76.173C93.4825 78.0199 87.1023 78.0199 81.186 76.4039" stroke="#C9D4E2" stroke-width="2" stroke-miterlimit="10" stroke-dasharray="4 4"/>
<path d="M135.592 10.7226C135.244 11.9923 133.852 12.4541 132.46 11.646C130.952 10.9534 129.908 10.3763 130.14 9.22193C130.488 8.0676 131.88 7.95217 133.504 7.83674C135.476 7.60587 135.824 9.4528 135.592 10.7226Z" fill="#DAE2EB"/>
<path d="M124.34 11.8769C124.92 12.9158 126.544 13.6084 127.704 12.5695C128.98 11.4151 130.024 10.6071 129.444 9.45278C128.864 8.41388 127.936 8.76018 125.964 8.99105C124.34 9.33735 123.644 10.7225 124.34 11.8769Z" fill="#DAE2EB"/>
<path d="M129.444 7.60593C130.256 7.4905 131.068 7.95223 131.3 8.64483C131.416 8.8757 131.532 9.22199 131.532 9.45286C131.764 11.0689 131.184 12.4541 130.256 12.5695C129.212 12.8004 128.168 11.6461 128.052 10.1455C128.052 9.68373 128.052 9.45286 128.052 9.10656C128.168 8.29853 128.632 7.72137 129.444 7.60593C129.444 7.60593 129.56 7.60593 129.444 7.60593Z" fill="#989FB0"/>
<defs>
<filter id="filter0_d_30_719" x="5.74976" y="2.83923" width="113.908" height="113.029" filterUnits="userSpaceOnUse" color-interpolation-filters="sRGB">
<feFlood flood-opacity="0" result="BackgroundImageFix"/>
<feColorMatrix in="SourceAlpha" type="matrix" values="0 0 0 0 0 0 0 0 0 0 0 0 0 0 0 0 0 0 127 0" result="hardAlpha"/>
<feOffset dy="11"/>
<feGaussianBlur stdDeviation="11"/>
<feColorMatrix type="matrix" values="0 0 0 0 0.397708 0 0 0 0 0.47749 0 0 0 0 0.575 0 0 0 0.27 0"/>
<feBlend mode="normal" in2="BackgroundImageFix" result="effect1_dropShadow_30_719"/>
<feBlend mode="normal" in="SourceGraphic" in2="effect1_dropShadow_30_719" result="shape"/>
</filter>
<linearGradient id="paint0_linear_30_719" x1="54.0742" y1="9.6274" x2="81.5605" y2="9.6274" gradientUnits="userSpaceOnUse">
<stop stop-color="#B0BACC"/>
<stop offset="1" stop-color="#969EAE"/>
</linearGradient>
</defs>
</svg>
